# xmcd CD database file
#
# Track frame offsets:
#	150
#	15585
#	32005
#	46101
#	65495
#	81375
#	97453
#	113158
#	127355
#	142574
#	157392
#	174112
#	188088
#	205118
#	220448
#	234988
#	247888
#	262843
#
# Disc length: 3702 seconds
#
# Revision: 2
# Processed by: cddbd v1.5.1PL2 Copyright (c) Steve Scherf et al.
# Submitted via: CDex 1.51
#
DISCID=f80e7412
DTITLE=Engenheiros do Hawaii - Acústico MTV
DYEAR=2004
DGENRE=Acoustic
TTITLE0=O Papa é Pop
TTITLE1=Até o Fim
TTITLE2=Vida Real
TTITLE3=Infinita Highway
TTITLE4=Armas Químicas e Poemas
TTITLE5=O Preço
TTITLE6=Dom Quixote
TTITLE7=3x4
TTITLE8=Refrão de Bolero
TTITLE9=Surfando em Karmas e DNA
TTITLE10=Depois de Nós
TTITLE11=3º do Plural
TTITLE12=Terra de Gigantes - Números
TTITLE13=Somos Quem Podemos Ser
TTITLE14=Outras Freqüencias
TTITLE15=Pose
TTITLE16=A Revolta dos Dândis
TTITLE17=Era um garoto ...
EXTD=YEAR: 2004
EXTT0=
EXTT1=
EXTT2=
EXTT3=
EXTT4=
EXTT5=
EXTT6=
EXTT7=
EXTT8=
EXTT9=
EXTT10=
EXTT11=
EXTT12=
EXTT13=
EXTT14=
EXTT15=
EXTT16=
EXTT17=
PLAYORDER=
